<svg width="23" height="16" viewBox="0 0 23 16" fill="none" xmlns="http://www.w3.org/2000/svg">
    <path fill-rule="evenodd" clip-rule="evenodd" d="M19.8097 6.25735C20.7596 5.2357 21.1931 4.35082 20.9487 3.82664C20.7042 3.30224 19.7469 3.06555 18.3527 3.13687C19.0479 4.04367 19.5533 5.10361 19.8097 6.25735ZM16.4342 1.34028C15.165 0.493568 13.6401 0 12 0C7.88082 0 4.48877 3.1132 4.04839 7.11505C1.64816 9.17359 0.452541 11.3374 1.23651 13.0186C2.02039 14.6996 4.44608 15.1747 7.56542 14.6594C8.83466 15.5063 10.3597 16 12 16C16.1199 16 19.5124 12.8857 19.9518 8.88288C22.3505 6.82496 23.545 4.66206 22.7613 2.98141C21.9776 1.30067 19.5526 0.825504 16.4342 1.34028ZM8.05156 12.5178C6.79417 11.418 6 9.80175 6 8C6 4.68629 8.68629 2 12 2C15.2732 2 17.9343 4.62106 17.9988 7.87884C16.7275 8.85915 15.1124 9.8583 13.2668 10.7189C11.422 11.5792 9.61919 12.1741 8.05156 12.5178ZM10.7415 13.8678C11.8361 13.512 12.9695 13.0643 14.112 12.5315C15.2553 11.9984 16.3274 11.4175 17.3041 10.8073C16.2968 12.7065 14.2995 14 12 14C11.5684 14 11.1474 13.9544 10.7415 13.8678ZM5.64724 12.863C4.25184 12.9347 3.29378 12.698 3.04912 12.1734C2.80454 11.6489 3.23872 10.7632 4.18993 9.74076C4.4461 10.8952 4.95168 11.9558 5.64724 12.863Z" fill="#B4B7F8" />
</svg>