<svg width="28px" height="10px" viewBox="0 0 28 12" fill="none" xmlns="http://www.w3.org/2000/svg">
    <path d="M4.55722 11.224C3.77322 11.224 3.08722 11.056 2.49922 10.72C1.92055 10.384 1.46789 9.89867 1.14122 9.264C0.823886 8.62933 0.665219 7.878 0.665219 7.01V0.976H2.54122V7.122C2.54122 7.81267 2.71389 8.37267 3.05922 8.802C3.41389 9.222 3.91322 9.432 4.55722 9.432C5.20122 9.432 5.69589 9.222 6.04122 8.802C6.39589 8.37267 6.57322 7.81267 6.57322 7.122V0.976H8.44922V7.01C8.44922 7.84067 8.29055 8.57333 7.97322 9.208C7.65589 9.84267 7.20322 10.3373 6.61522 10.692C6.02722 11.0467 5.34122 11.224 4.55722 11.224ZM13.5919 11.224C12.7146 11.224 11.9399 10.9767 11.2679 10.482C10.5959 9.98733 10.1246 9.28733 9.85392 8.382L11.6319 7.682C11.7719 8.214 12.0099 8.63867 12.3459 8.956C12.6819 9.27333 13.1019 9.432 13.6059 9.432C14.0259 9.432 14.3853 9.32933 14.6839 9.124C14.9826 8.90933 15.1319 8.61533 15.1319 8.242C15.1319 7.86867 14.9873 7.56533 14.6979 7.332C14.4179 7.08933 13.9139 6.83267 13.1859 6.562L12.5699 6.338C11.9259 6.114 11.3753 5.77333 10.9179 5.316C10.4606 4.84933 10.2319 4.266 10.2319 3.566C10.2319 3.04333 10.3673 2.56733 10.6379 2.138C10.9086 1.70867 11.2913 1.37267 11.7859 1.13C12.2806 0.877999 12.8406 0.751999 13.4659 0.751999C14.3713 0.751999 15.0853 0.966666 15.6079 1.396C16.1306 1.816 16.4899 2.31067 16.6859 2.88L15.0199 3.58C14.9173 3.272 14.7353 3.01533 14.4739 2.81C14.2219 2.59533 13.8953 2.488 13.4939 2.488C13.0833 2.488 12.7426 2.586 12.4719 2.782C12.2106 2.96867 12.0799 3.216 12.0799 3.524C12.0799 3.82267 12.2059 4.07933 12.4579 4.294C12.7099 4.49933 13.1253 4.7 13.7039 4.896L14.3339 5.106C15.2019 5.40467 15.8646 5.80133 16.3219 6.296C16.7886 6.78133 17.0219 7.42067 17.0219 8.214C17.0219 8.86733 16.8539 9.42267 16.5179 9.88C16.1819 10.328 15.7479 10.664 15.2159 10.888C14.6933 11.112 14.1519 11.224 13.5919 11.224ZM18.8121 0.976H22.2001C23.2454 0.976 24.1554 1.186 24.9301 1.606C25.7047 2.026 26.3021 2.614 26.7221 3.37C27.1421 4.126 27.3521 4.99867 27.3521 5.988C27.3521 6.97733 27.1421 7.85 26.7221 8.606C26.3021 9.362 25.7047 9.95 24.9301 10.37C24.1554 10.79 23.2454 11 22.2001 11H18.8121V0.976ZM22.1161 9.208C23.1987 9.208 24.0247 8.92333 24.5941 8.354C25.1634 7.77533 25.4481 6.98667 25.4481 5.988C25.4481 4.98933 25.1634 4.20533 24.5941 3.636C24.0247 3.05733 23.1987 2.768 22.1161 2.768H20.7021V9.208H22.1161Z" fill="#B3B3B3" />
</svg>